Treasure Buddies (2012) 1080p mkv AC3+DTS HDMA Eng NL Subs
.
[IMG]http://img837.imageshack.us/img837/9569/treasurebuddies2012.jpg[/IMG]
.
Verenigde Staten
Komedie / Familie

geregisseerd door Robert Vince
met Richard Riehle, Edward Herrmann en Mason Cook

Disneys onweerstaanbare pratende puppyÆs komen terecht bij de ru´nes van het oude Egypte. Met de hulp van een aantal exotische nieuwe vriendjes moeten ze de strijd met een slinkse kat aangaan. De puppy's en hun nieuwe vriendjes Cammi en Babi moeten daarbij boobytraps ontwijken, puzzels oplossen en mysterieuze tombes onderzoeken om de grootste schat ooit te vinden.
. 
http://www.moviemeter.nl/film/82265
.
PLOT
. 
http://www.imdb.com/title/tt1791658/
.
INFO
.
Source: Bluray.HDC
Video: 1920x1080
Audio: English AC3+DTS
Subs: English, Dutch 
NL Vertaling: QoQ Team
.
Enjoy
.
Format                           : Matroska
Format version                   : Version 2
File size                        : 19.8 GiB
Duration                         : 1h 32mn
Overall bit rate mode            : Variable
Overall bit rate                 : 30.5 Mbps
Encoded date                     : UTC 2012-01-24 09:10:22
Writing application              : mkvmerge v5.2.0 ('I can't explain') built on Dec 18 2011 18:12:03
Writing library                  : libebml v1.2.3 + libmatroska v1.3.0

Video
ID                               : 1
Format                           : AVC
Format/Info                      : Advanced Video Codec
Format profile                   : High@L4.1
Format settings, CABAC           : Yes
Format settings, ReFrames        : 4 frames
Format settings, GOP             : M=3, N=12
Muxing mode                      : Container profile=Unknown@0.0
Codec ID                         : V_MPEG4/ISO/AVC
Duration                         : 1h 32mn
Bit rate mode                    : Variable
Bit rate                         : 27.6 Mbps
Maximum bit rate                 : 38.0 Mbps
Width                            : 1 920 pixels
Height                           : 1 080 pixels
Display aspect ratio             : 16:9
Frame rate                       : 23.976 fps
Color space                      : YUV
Chroma subsampling               : 4:2:0
Bit depth                        : 8 bits
Scan type                        : Progressive
Bits/(Pixel*Frame)               : 0.556
Stream size                      : 17.9 GiB (91%)
Title                            : Treasure Buddies 2012 aZA
Language                         : English
Default                          : Yes
Forced                           : No

Audio #1
ID                               : 2
Format                           : DTS
Format/Info                      : Digital Theater Systems
Format profile                   : MA / Core
Codec ID                         : A_DTS
Duration                         : 1h 32mn
Bit rate mode                    : Variable
Bit rate                         : 1 576 Kbps / 1 510 Kbps
Channel(s)                       : 6 channels
Channel positions                : Front: L C R, Side: L R, LFE
Sampling rate                    : 48.0 KHz
Bit depth                        : 24 bits
Compression mode                 : Lossless / Lossy
Title                            : DTS-HD MA
Language                         : English
Default                          : No
Forced                           : No

Audio #2
ID                               : 3
Format                           : AC-3
Format/Info                      : Audio Coding 3
Mode extension                   : CM (complete main)
Codec ID                         : A_AC3
Duration                         : 1h 32mn
Bit rate mode                    : Constant
Bit rate                         : 640 Kbps
Channel(s)                       : 6 channels
Channel positions                : Front: L C R, Side: L R, LFE
Sampling rate                    : 48.0 KHz
Bit depth                        : 16 bits
Compression mode                 : Lossy
Stream size                      : 425 MiB (2%)
Title                            : AC3
Language                         : English
Default                          : Yes
Forced                           : No

Text #1
ID                               : 4
Format                           : UTF-8
Codec ID                         : S_TEXT/UTF8
Codec ID/Info                    : UTF-8 Plain Text
Title                            : Nederlands QoQ-Team
Language                         : Dutch
Default                          : Yes
Forced                           : Yes

Text #2
ID                               : 5
Format                           : PGS
Muxing mode                      : zlib
Codec ID                         : S_HDMV/PGS
Codec ID/Info                    : The same subtitle format used on BDs/HD-DVDs
Title                            : Engels
Language                         : English
Default                          : No
Forced                           : No

Menu
00:00:00.000                     : en:00:00:00.000
00:07:46.299                     : en:00:07:46.299
00:15:21.212                     : en:00:15:21.212
00:22:43.070                     : en:00:22:43.070
00:30:41.381                     : en:00:30:41.381
00:36:58.591                     : en:00:36:58.591
00:43:14.091                     : en:00:43:14.091
00:52:15.716                     : en:00:52:15.716
00:59:03.206                     : en:00:59:03.206
01:06:56.721                     : en:01:06:56.721
01:12:59.250                     : en:01:12:59.250
01:19:38.524                     : en:01:19:38.524
01:24:43.745                     : en:01:24:43.745
01:27:57.522                     : en:01:27:57.522




